<svg xmlns="http://www.w3.org/2000/svg" width="14.9" height="17.9" viewBox="30.9 16.3 14.9 17.9" enable-background="new 30.9 16.3 14.9 17.9"><path fill="#06E349" d="m5 27.3l1.2 1.2c.4.4.4 1 0 1.4-.2.2-.4.3-.7.3-.3 0-.5-.1-.7-.3-1-1-2.2-2.2-3.4-3.4-.1-.1-.1-.3 0-.3 1.2-1.2 2.2-2.2 3.4-3.5.4-.4 1-.4 1.4 0 .4.4.4 1 0 1.4l-1.2 1.2h9.8c.5 0 1 .4 1 1 0 .5-.4 1-1 1h-9.8m6.7-12.1l-1.2-1.2c-.4-.4-.4-1 0-1.4.2-.2.4-.3.7-.3.3 0 .5.1.7.3 1 1 2.2 2.2 3.4 3.4.1.1.1.3 0 .3-1.2 1.2-2.2 2.2-3.4 3.4-.4.4-1 .4-1.4 0-.4-.4-.4-1 0-1.4l1.2-1.2h-9.8c-.5 0-1-.4-1-1 0-.5.4-1 1-1h9.8z" transform="translate(30 4)"/></svg>
